<svg xmlns="http://www.w3.org/2000/svg" width="97" height="64" viewBox="0 0 97 64">
    <g fill="none" fill-rule="evenodd" stroke="#1F314A" stroke-linecap="round" stroke-linejoin="round" stroke-width="3">
        <path d="M62.56 0H40.25M62.56 8.92H51.4M73.21 8.92h-3.14" transform="translate(1.88 2.04)"/>
        <path fill-rule="nonzero" d="M93.463 46.7c.207-3.443-1.324-6.75-4.047-8.746-2.722-1.995-6.25-2.394-9.325-1.053.006-1.132-.18-2.256-.547-3.322-.858-2.492-2.639-4.529-4.951-5.663-2.312-1.134-4.966-1.271-7.377-.382l-.482.199c-2.933-3.821-8.112-4.887-12.238-2.518-4.127 2.368-5.987 7.475-4.397 12.068-3.838 1.402-6.41 5.144-6.429 9.35h0V59.92h49.825V46.633l-.032.067zM31 51.96c.127-2.07-.824-4.059-2.515-5.26-1.691-1.2-3.883-1.442-5.795-.64-.005-.681-.123-1.357-.35-2-1.111-3.12-4.54-4.748-7.66-3.64-.102.034-.203.074-.3.12-1.804-2.399-5.102-3.096-7.722-1.632C4.038 40.372 2.903 43.547 4 46.34c-2.385.843-3.984 3.09-4 5.62h0v8h31v-8z" transform="translate(1.88 2.04)"/>
    </g>
</svg>
