<svg xmlns="http://www.w3.org/2000/svg" width="21" height="20" viewBox="0 0 21 20">
    <g fill="#89ABB5">
        <path d="M9 18.667c.184 0 .333-.15.333-.334V5.667c0-.184-.149-.334-.333-.334H5.667c-.184 0-.334.15-.334.334v12.666c0 .184.15.334.334.334H9zM6 6h2.667v12H6V6zM.333 18.667h3.334c.184 0 .333-.15.333-.334v-10C4 8.15 3.85 8 3.667 8H.333C.15 8 0 8.15 0 8.333v10c0 .184.15.334.333.334zm.334-10h2.666V18H.667V8.667zM14.333 18.667c.184 0 .334-.15.334-.334V3c0-.184-.15-.333-.334-.333H11c-.184 0-.333.149-.333.333v15.333c0 .184.149.334.333.334h3.333zm-3-15.334H14V18h-2.667V3.333zM19.667 0h-3.334C16.15 0 16 .15 16 .333v18c0 .184.15.334.333.334h3.334c.184 0 .333-.15.333-.334v-18C20 .15 19.85 0 19.667 0zm-.334 18h-2.666V.667h2.666V18zM19.667 19.333H.333c-.184 0-.333.15-.333.334 0 .184.15.333.333.333h19.334c.184 0 .333-.15.333-.333 0-.184-.15-.334-.333-.334z" transform="translate(.083)"/>
    </g>
</svg>
