<svg xmlns="http://www.w3.org/2000/svg" width="22" height="20" viewBox="0 0 22 20">
    <g fill="#00D1C5">
        <path d="M17.747 9.8c-.345 0-.612.266-.612.613v8.372h-4.343v-3.419c0-.32-.268-.6-.59-.6h-3.14c-.346 0-.624.28-.624.6v3.419H4.106v-8.094c0-.323-.267-.591-.613-.591-.323 0-.59.268-.59.591v8.707c0 .323.267.591.59.591h5.568c.323 0 .59-.268.59-.591v-3.419h1.938v3.419c0 .323.267.591.612.591h5.546c.323 0 .59-.268.59-.591v-8.985c0-.347-.267-.613-.59-.613z"/>
        <path d="M21.076 10.278l-4.832-4.854V2.115c0-.344-.279-.61-.624-.61-.323 0-.59.266-.59.61v2.096L11.043.2c-.122-.124-.267-.19-.412-.19-.167 0-.312.068-.434.19L.187 10.21c-.241.24-.257.625 0 .846.222.257.605.24.845 0l9.6-9.576 9.576 9.666c.1.1.245.157.434.157.167 0 .312-.057.434-.157.223-.223.24-.627 0-.87z"/>
    </g>
</svg>
